<svg width="63" height="18" viewBox="0 0 63 18" fill="none" xmlns="http://www.w3.org/2000/svg">
<path d="M8.88925 17.0894C5.99066 17.0894 3.7822 16.347 2.26389 14.8622C1.48414 14.0401 0.882134 13.0664 0.495391 12.0016C0.108649 10.9368 -0.0545379 9.80378 0.0160021 8.67318C-0.0534597 7.51734 0.107766 6.35923 0.490296 5.26626C0.872825 4.17329 1.46902 3.16729 2.24417 2.30681C3.72305 0.775986 5.93808 0.00729382 8.88925 0.00072377C9.79855 -0.00851405 10.7066 0.0706976 11.6005 0.237243C12.3838 0.382646 13.155 0.586892 13.9076 0.848253V4.48478C12.4141 3.86526 10.8118 3.5503 9.19489 3.5584C8.51795 3.4988 7.83595 3.57727 7.19025 3.78902C6.54455 4.00078 5.9486 4.34141 5.43854 4.79028C4.54703 5.87861 4.11549 7.27169 4.23573 8.67318C4.1781 9.3445 4.26051 10.0205 4.47773 10.6583C4.69496 11.2961 5.04227 11.882 5.4977 12.3787C6.55208 13.2392 7.89662 13.6625 9.25404 13.5613C10.0576 13.5634 10.8597 13.4908 11.6498 13.3445C12.437 13.1976 13.2068 12.9698 13.947 12.6645V16.3207C13.1959 16.5633 12.4281 16.7511 11.6498 16.8825C10.7372 17.0296 9.81365 17.0988 8.88925 17.0894Z" fill="#FF7152"/>
<path d="M23.5492 17.0903C20.8478 17.0903 18.7971 16.4037 17.3971 15.0306C15.9971 13.6574 15.2905 11.5222 15.2773 8.62479C15.2773 5.55001 15.9872 3.35232 17.3971 2.01203C18.8069 0.67174 20.8478 0.0410156 23.5492 0.0410156C26.2506 0.0410156 28.2914 0.71116 29.7013 2.01203C31.1112 3.3129 31.8111 5.55001 31.8111 8.62479C31.8111 11.5222 31.1013 13.6607 29.7013 15.0306C28.3013 16.4004 26.2407 17.0903 23.5492 17.0903ZM23.5492 13.5622C24.121 13.619 24.6983 13.5407 25.2343 13.3335C25.7703 13.1264 26.2502 12.7962 26.6351 12.3697C27.3749 11.2674 27.7222 9.94833 27.621 8.62479C27.7479 7.23713 27.4004 5.84747 26.6351 4.68276C26.246 4.2755 25.77 3.96121 25.2425 3.76328C24.715 3.56536 24.1497 3.48889 23.5886 3.53957C23.0229 3.48721 22.4527 3.56279 21.9202 3.76068C21.3877 3.95858 20.9066 4.27372 20.5126 4.68276C19.7422 5.84521 19.3941 7.23671 19.5266 8.62479C19.4254 9.94833 19.7727 11.2674 20.5126 12.3697C20.8942 12.7868 21.3662 13.1111 21.8926 13.3178C22.4189 13.5245 22.9856 13.6081 23.5492 13.5622Z" fill="#FF7152"/>
<path d="M33.9219 16.8334V0.257173H42.2134C43.002 0.191901 43.7954 0.29622 44.5403 0.563106C45.2852 0.829993 45.9642 1.25326 46.5317 1.80442C47.5064 2.95634 48.0037 4.4371 47.9219 5.94356C47.9526 6.99309 47.6563 8.02623 47.074 8.90008C46.5047 9.74258 45.6985 10.3976 44.7571 10.7824C44.9859 10.9576 45.1826 11.171 45.3388 11.4131C45.5266 11.7263 45.6851 12.0562 45.812 12.3986L47.7839 16.8728H43.4458L41.5923 12.6549C41.4722 12.3423 41.2673 12.0693 41.0008 11.8665C40.7009 11.6956 40.3599 11.6103 40.0148 11.6201H38.0627V16.8728L33.9219 16.8334ZM38.0627 8.38761H41.1289C41.8129 8.43084 42.4883 8.21636 43.0219 7.78645C43.2624 7.54708 43.4478 7.25823 43.5653 6.93997C43.6827 6.62171 43.7295 6.28169 43.7022 5.94356C43.7022 4.2879 42.9036 3.45022 41.3064 3.45022H38.0627V8.38761Z" fill="#FF7152"/>
<path d="M50.0312 16.8341V0.257812H62.2665V3.45086H54.182V6.9297H61.3101V10.1917H54.182V13.641H62.2665V16.8341H50.0312Z" fill="#FF7152"/>
</svg>
