<svg width="32" height="32" viewBox="0 0 32 32" fill="none" xmlns="http://www.w3.org/2000/svg">
<rect width="32" height="32" rx="4" fill="#1B1D22"/>
<path d="M18.7171 24.5417H13.2837C9.19206 24.5417 7.44206 22.7917 7.44206 18.7V18.5917C7.44206 14.8917 8.90039 13.1084 12.1671 12.8001C12.5004 12.7751 12.8171 13.0251 12.8504 13.3667C12.8837 13.7084 12.6337 14.0167 12.2837 14.0501C9.66706 14.2917 8.69206 15.525 8.69206 18.6V18.7084C8.69206 22.1 9.89206 23.3 13.2837 23.3H18.7171C22.1088 23.3 23.3088 22.1 23.3088 18.7084V18.6C23.3088 15.5084 22.3171 14.2751 19.6504 14.0501C19.3088 14.0167 19.0504 13.7167 19.0838 13.3751C19.1171 13.0334 19.4088 12.7751 19.7588 12.8084C23.0754 13.0917 24.5588 14.8834 24.5588 18.6084V18.7167C24.5588 22.7917 22.8088 24.5417 18.7171 24.5417Z" fill="white"/>
<path d="M16 19.0251C15.6583 19.0251 15.375 18.7417 15.375 18.4001V7.66675C15.375 7.32508 15.6583 7.04175 16 7.04175C16.3417 7.04175 16.625 7.32508 16.625 7.66675V18.4001C16.625 18.7501 16.3417 19.0251 16 19.0251Z" fill="white"/>
<path d="M15.9998 19.9585C15.8415 19.9585 15.6832 19.9002 15.5582 19.7752L12.7665 16.9835C12.5249 16.7419 12.5249 16.3419 12.7665 16.1002C13.0082 15.8585 13.4082 15.8585 13.6499 16.1002L15.9998 18.4502L18.3498 16.1002C18.5915 15.8585 18.9915 15.8585 19.2332 16.1002C19.4748 16.3419 19.4748 16.7419 19.2332 16.9835L16.4415 19.7752C16.3165 19.9002 16.1582 19.9585 15.9998 19.9585Z" fill="white"/>
</svg>
