<svg width="32" height="32" viewBox="0 0 32 32" fill="none" xmlns="http://www.w3.org/2000/svg">
<rect width="32" height="32" rx="4" fill="#1B1D22"/>
<path d="M22.6667 13.4501C22.658 13.3735 22.6412 13.2981 22.6167 13.2251V13.1501C22.5766 13.0644 22.5232 12.9856 22.4583 12.9167L17.4583 7.91675C17.3894 7.85193 17.3107 7.79848 17.225 7.75841H17.15L16.8833 7.66675H11.8333C11.1703 7.66675 10.5344 7.93014 10.0656 8.39898C9.59673 8.86782 9.33334 9.50371 9.33334 10.1667V21.8334C9.33334 22.4965 9.59673 23.1323 10.0656 23.6012C10.5344 24.07 11.1703 24.3334 11.8333 24.3334H20.1667C20.8297 24.3334 21.4656 24.07 21.9344 23.6012C22.4033 23.1323 22.6667 22.4965 22.6667 21.8334V13.5001C22.6667 13.5001 22.6667 13.5001 22.6667 13.4501ZM17.6667 10.5084L19.825 12.6667H17.6667V10.5084ZM21 21.8334C21 22.0544 20.9122 22.2664 20.7559 22.4227C20.5996 22.579 20.3877 22.6667 20.1667 22.6667H11.8333C11.6123 22.6667 11.4004 22.579 11.2441 22.4227C11.0878 22.2664 11 22.0544 11 21.8334V10.1667C11 9.94573 11.0878 9.73377 11.2441 9.57749C11.4004 9.42121 11.6123 9.33341 11.8333 9.33341H16V13.5001C16 13.7211 16.0878 13.9331 16.2441 14.0893C16.4004 14.2456 16.6123 14.3334 16.8333 14.3334H21V21.8334Z" fill="white"/>
</svg>
