<svg width="32" height="32" viewBox="0 0 32 32" fill="none" xmlns="http://www.w3.org/2000/svg">
<rect width="32" height="32" rx="4" fill="#1B1D22"/>
<path fillRule="evenodd" clipRule="evenodd" d="M8.45783 10.1246C8.91104 9.67136 9.52573 9.41675 10.1667 9.41675H15.1667C15.3656 9.41675 15.5563 9.49577 15.697 9.63642L17.144 11.0834H21.8333C22.4743 11.0834 23.089 11.338 23.5422 11.7912C23.9954 12.2445 24.25 12.8591 24.25 13.5001V20.1667C24.25 20.8077 23.9954 21.4224 23.5422 21.8756C23.089 22.3288 22.4743 22.5834 21.8333 22.5834H10.1667C9.52573 22.5834 8.91104 22.3288 8.45783 21.8756C8.00461 21.4224 7.75 20.8077 7.75 20.1667V11.8334C7.75 11.1925 8.00461 10.5778 8.45783 10.1246ZM10.1667 10.9167C9.92355 10.9167 9.69039 11.0133 9.51849 11.1852C9.34658 11.3571 9.25 11.5903 9.25 11.8334V20.1667C9.25 20.4099 9.34658 20.643 9.51849 20.8149C9.69039 20.9868 9.92355 21.0834 10.1667 21.0834H21.8333C22.0764 21.0834 22.3096 20.9868 22.4815 20.8149C22.6534 20.643 22.75 20.4099 22.75 20.1667V13.5001C22.75 13.257 22.6534 13.0238 22.4815 12.8519C22.3096 12.68 22.0764 12.5834 21.8333 12.5834H16.8333C16.6344 12.5834 16.4437 12.5044 16.303 12.3637L14.856 10.9167H10.1667Z" fill="white"/>
</svg>
