<svg width="32" height="32" viewBox="0 0 32 32" fill="none" xmlns="http://www.w3.org/2000/svg">
<rect width="32" height="32" rx="4" fill="#1B1D22"/>
<path d="M14.3919 23.0857C14.3919 22.9635 14.365 22.8428 14.3131 22.7321C14.2613 22.6215 14.1857 22.5236 14.0918 22.4454C13.9978 22.3672 13.8879 22.3106 13.7696 22.2796C13.6514 22.2487 13.5278 22.2441 13.4076 22.2662C12.3167 22.4664 10.9394 22.4965 10.5732 21.4679C10.2538 20.6712 9.72489 19.9758 9.0424 19.4554C8.99371 19.4289 8.9473 19.3984 8.90365 19.3642C8.84392 19.2067 8.73783 19.0709 8.59937 18.9749C8.46091 18.8788 8.29659 18.827 8.12809 18.8263H8.12402C7.90369 18.8262 7.6923 18.9134 7.53612 19.0688C7.37994 19.2243 7.29169 19.4352 7.29069 19.6556C7.28743 20.3351 7.96652 20.7705 8.24202 20.9178C8.56689 21.2442 8.82798 21.6284 9.01188 22.0506C9.31543 22.9034 10.1976 24.1974 12.7334 24.0306C12.7342 24.0599 12.735 24.0875 12.7354 24.1128L12.7391 24.3358C12.7391 24.5568 12.8269 24.7687 12.9832 24.925C13.1394 25.0813 13.3514 25.1691 13.5724 25.1691C13.7934 25.1691 14.0054 25.0813 14.1617 24.925C14.318 24.7687 14.4058 24.5568 14.4058 24.3358L14.4017 24.0705C14.3976 23.9125 14.3919 23.6838 14.3919 23.0857ZM23.2811 10.4807C23.3075 10.3765 23.3336 10.261 23.3564 10.1308C23.4911 9.20209 23.3737 8.25426 23.0162 7.3866C22.9711 7.27349 22.9018 7.17161 22.8132 7.0881C22.7245 7.0046 22.6187 6.94149 22.5031 6.90321C22.2064 6.80311 21.1111 6.60617 19.0164 7.94488C17.2751 7.53512 15.4626 7.53512 13.7214 7.94488C11.6352 6.62578 10.5455 6.80478 10.2517 6.89918C10.1333 6.93591 10.0245 6.99868 9.9335 7.08289C9.84246 7.1671 9.77142 7.27061 9.72558 7.38584C9.36083 8.27016 9.24462 9.23732 9.38948 10.1829C9.40983 10.2895 9.4318 10.388 9.45459 10.4783C8.76423 11.3978 8.39652 12.5194 8.40845 13.6692C8.4062 13.9257 8.41802 14.1822 8.44385 14.4374C8.72218 18.2729 11.2222 19.4244 12.9641 19.8199C12.9279 19.9241 12.8949 20.0356 12.8656 20.1536C12.8134 20.368 12.8484 20.5944 12.9628 20.7831C13.0772 20.9717 13.2618 21.1074 13.4761 21.1601C13.6904 21.2129 13.9169 21.1786 14.1058 21.0646C14.2948 20.9507 14.4309 20.7665 14.4843 20.5523C14.5373 20.2747 14.6732 20.0196 14.8741 19.8207C14.9956 19.7144 15.0835 19.575 15.1272 19.4196C15.171 19.2642 15.1686 19.0995 15.1204 18.9454C15.0722 18.7913 14.9803 18.6546 14.8558 18.5518C14.7313 18.449 14.5796 18.3846 14.4192 18.3665C11.5408 18.0377 10.2912 16.865 10.1032 14.2844C10.0824 14.08 10.073 13.8747 10.0751 13.6692C10.0617 12.8498 10.3325 12.0509 10.8413 11.4085C10.8924 11.3415 10.9469 11.2771 11.0045 11.2156C11.1065 11.1014 11.1751 10.9614 11.2027 10.8108C11.2304 10.6602 11.216 10.5049 11.1611 10.3619C11.1049 10.2115 11.0616 10.0566 11.0317 9.89886C10.9639 9.45029 10.9861 8.99268 11.0972 8.55283C11.8215 8.75739 12.5032 9.09036 13.1097 9.53589C13.2101 9.6027 13.3236 9.64717 13.4426 9.66626C13.5616 9.68536 13.6833 9.67865 13.7994 9.64658C15.4837 9.18949 17.2594 9.18978 18.9435 9.64741C19.0603 9.67944 19.1827 9.68577 19.3021 9.66597C19.4216 9.64616 19.5354 9.60068 19.6356 9.53267C20.2394 9.08528 20.9182 8.74933 21.64 8.54064C21.7507 8.96994 21.7754 9.41686 21.7129 9.85574C21.6827 10.0287 21.6355 10.1982 21.5721 10.3619C21.5172 10.5049 21.5028 10.6602 21.5305 10.8108C21.5581 10.9614 21.6267 11.1014 21.7287 11.2156C21.793 11.288 21.8573 11.3662 21.9151 11.4394C22.4203 12.071 22.6865 12.8606 22.6667 13.6692C22.6682 13.8855 22.6577 14.1018 22.6353 14.317C22.4518 16.8634 21.1973 18.0369 18.3055 18.3665C18.145 18.3847 17.9934 18.4492 17.8689 18.5521C17.7444 18.655 17.6525 18.7918 17.6044 18.946C17.5562 19.1001 17.5539 19.2649 17.5977 19.4204C17.6415 19.5758 17.7295 19.7152 17.851 19.8215C18.0582 20.0257 18.1944 20.291 18.2396 20.5784C18.2959 20.8015 18.3218 21.0311 18.3165 21.2612V23.2062C18.3083 23.7457 18.3083 24.1502 18.3083 24.3357C18.3083 24.5567 18.3961 24.7687 18.5524 24.925C18.7087 25.0812 18.9207 25.169 19.1417 25.169C19.3627 25.169 19.5746 25.0812 19.7309 24.925C19.8872 24.7687 19.975 24.5567 19.975 24.3357C19.975 24.155 19.975 23.7587 19.9831 23.2192V21.2612C19.9899 20.8927 19.9465 20.525 19.8542 20.1682C19.8278 20.0511 19.7954 19.9354 19.7573 19.8216C21.025 19.611 22.1769 18.9573 23.0078 17.9771C23.8388 16.9968 24.2949 15.7534 24.2951 14.4684C24.3225 14.2029 24.3353 13.9361 24.3333 13.6692C24.3518 12.5182 23.981 11.3946 23.2811 10.4807L23.2811 10.4807Z" fill="white"/>
</svg>
