<svg width="16" height="16" viewBox="0 0 16 16" fill="none" xmlns="http://www.w3.org/2000/svg">
<g clipPath="url(#clip0_315_571)">
<path d="M7.999 0C3.582 0 0 3.67245 0 8.20275C0 11.8262 2.292 14.9002 5.472 15.9858C5.872 16.0613 6.018 15.8081 6.018 15.5905C6.018 15.3955 6.011 14.8797 6.007 14.1955C3.782 14.6908 3.312 13.0956 3.312 13.0956C2.949 12.1479 2.424 11.8956 2.424 11.8956C1.697 11.387 2.478 11.3973 2.478 11.3973C3.281 11.4555 3.703 12.2429 3.703 12.2429C4.417 13.4959 5.576 13.1344 6.032 12.924C6.104 12.394 6.311 12.0325 6.54 11.8272C4.764 11.6199 2.896 10.9162 2.896 7.77383C2.896 6.87818 3.208 6.14594 3.72 5.57199C3.637 5.36468 3.363 4.53031 3.798 3.40181C3.798 3.40181 4.47 3.18122 5.998 4.24231C6.636 4.06053 7.32 3.96964 8.001 3.96657C8.68 3.97066 9.365 4.06053 10.004 4.24333C11.531 3.18224 12.202 3.40284 12.202 3.40284C12.638 4.53235 12.364 5.3657 12.282 5.57301C12.795 6.14696 13.104 6.8792 13.104 7.77485C13.104 10.9254 11.234 11.6189 9.452 11.8221C9.739 12.0754 9.995 12.5758 9.995 13.3407C9.995 14.4375 9.985 15.322 9.985 15.5905C9.985 15.8101 10.129 16.0654 10.535 15.9847C13.71 14.8981 16 11.8252 16 8.20275C16 3.67245 12.418 0 7.999 0Z" fill="white"/>
</g>
<defs>
<clipPath id="clip0_315_571">
<rect width="16" height="16" fill="white"/>
</clipPath>
</defs>
</svg>
