<svg width="18" height="18" viewBox="0 0 18 18" fill="none" xmlns="http://www.w3.org/2000/svg">
<path d="M15.7002 4.68251L10.9002 1.32418C9.59186 0.407508 7.58352 0.457508 6.32519 1.43251L2.15019 4.69084C1.31686 5.34084 0.658524 6.67418 0.658524 7.72418V13.4742C0.658524 15.5992 2.38352 17.3325 4.50852 17.3325H13.4919C15.6169 17.3325 17.3419 15.6075 17.3419 13.4825V7.83251C17.3419 6.70751 16.6169 5.32418 15.7002 4.68251V4.68251ZM9.62519 13.9992C9.62519 14.3408 9.34186 14.6242 9.00019 14.6242C8.65852 14.6242 8.37519 14.3408 8.37519 13.9992V11.4992C8.37519 11.1575 8.65852 10.8742 9.00019 10.8742C9.34186 10.8742 9.62519 11.1575 9.62519 11.4992V13.9992Z" fill="white"/>
</svg>
