<svg width="16" height="16" viewBox="0 0 16 16" fill="none" xmlns="http://www.w3.org/2000/svg">
<g clipPath="url(#clip0_315_576)">
<path d="M15.9961 16.0007V16.0001H16.0001V10.1321C16.0001 7.26138 15.3821 5.05005 12.0261 5.05005C10.4128 5.05005 9.33009 5.93538 8.88809 6.77472H8.84142V5.31805H5.65942V16.0001H8.97276V10.7107C8.97276 9.31806 9.23676 7.97139 10.9614 7.97139C12.6608 7.97139 12.6861 9.56072 12.6861 10.8001V16.0007H15.9961Z" fill="white"/>
<path d="M0.265625 5.31885H3.58296V16.0008H0.265625V5.31885Z" fill="white"/>
<path d="M1.92133 0C0.860667 0 0 0.860667 0 1.92133C0 2.982 0.860667 3.86067 1.92133 3.86067C2.982 3.86067 3.84267 2.982 3.84267 1.92133C3.842 0.860667 2.98133 0 1.92133 0V0Z" fill="white"/>
</g>
<defs>
<clipPath id="clip0_315_576">
<rect width="16" height="16" fill="white"/>
</clipPath>
</defs>
</svg>
