<svg width="57" height="56" viewBox="0 0 57 56" fill="none" xmlns="http://www.w3.org/2000/svg">
<circle cx="28.5" cy="28" r="28" fill="white"/>
<path d="M33.3 25H29.25V29.44L31.32 27.37C31.47 27.22 31.66 27.15 31.85 27.15C32.04 27.15 32.23 27.22 32.38 27.37C32.67 27.66 32.67 28.14 32.38 28.43L29.03 31.78C28.74 32.07 28.26 32.07 27.97 31.78L24.62 28.43C24.33 28.14 24.33 27.66 24.62 27.37C24.91 27.08 25.39 27.08 25.68 27.37L27.75 29.44V25H23.7C20.5 25 18.5 27 18.5 30.2V32.79C18.5 36 20.5 38 23.7 38H33.29C36.49 38 38.49 36 38.49 32.8V30.2C38.5 27 36.5 25 33.3 25ZM29.25 18.75C29.25 18.34 28.91 18 28.5 18C28.09 18 27.75 18.34 27.75 18.75V25H29.25V18.75Z" fill="#00050F"/>
</svg>
