<svg width="20" height="20" viewBox="0 0 20 20" fill="none" xmlns="http://www.w3.org/2000/svg">
<path d="M18.3333 5.41667H13.3333M4.99996 5.41667H1.66663M18.3333 14.5833H15M6.66663 14.5833H1.66663M8.33329 8.33333C9.94413 8.33333 11.25 7.0275 11.25 5.41667C11.25 3.80583 9.94413 2.5 8.33329 2.5C6.72246 2.5 5.41663 3.80583 5.41663 5.41667C5.41663 7.0275 6.72246 8.33333 8.33329 8.33333ZM11.6666 17.5C13.2775 17.5 14.5833 16.1942 14.5833 14.5833C14.5833 12.9725 13.2775 11.6667 11.6666 11.6667C10.0558 11.6667 8.74996 12.9725 8.74996 14.5833C8.74996 16.1942 10.0558 17.5 11.6666 17.5Z" stroke="white" stroke-width="1.5" stroke-miterlimit="10" stroke-linecap="round" stroke-linejoin="round"/>
</svg>
